<svg width="24" height="24" viewBox="0 0 24 24" fill="none" xmlns="http://www.w3.org/2000/svg">
<mask id="mask0_1739_23588" style="mask-type:alpha" maskUnits="userSpaceOnUse" x="0" y="0" width="24" height="24">
<rect width="24" height="24" fill="#D9D9D9"/>
</mask>
<g mask="url(#mask0_1739_23588)">
<path d="M12 17.0069C13.25 17.0069 14.3125 16.5699 15.1875 15.6958C16.0625 14.8217 16.5 13.7603 16.5 12.5116C16.5 11.2629 16.0625 10.2016 15.1875 9.32747C14.3125 8.45338 13.25 8.01634 12 8.01634C10.75 8.01634 9.6875 8.45338 8.8125 9.32747C7.9375 10.2016 7.5 11.2629 7.5 12.5116C7.5 13.7603 7.9375 14.8217 8.8125 15.6958C9.6875 16.5699 10.75 17.0069 12 17.0069ZM12 15.009C11.3 15.009 10.7083 14.7676 10.225 14.2848C9.74167 13.802 9.5 13.2109 9.5 12.5116C9.5 11.8124 9.74167 11.2213 10.225 10.7385C10.7083 10.2557 11.3 10.0143 12 10.0143C12.7 10.0143 13.2917 10.2557 13.775 10.7385C14.2583 11.2213 14.5 11.8124 14.5 12.5116C14.5 13.2109 14.2583 13.802 13.775 14.2848C13.2917 14.7676 12.7 15.009 12 15.009ZM4 20.5033C3.45 20.5033 2.97917 20.3077 2.5875 19.9164C2.19583 19.5252 2 19.0548 2 18.5054V6.51791C2 5.96848 2.19583 5.49814 2.5875 5.10688C2.97917 4.71562 3.45 4.51999 4 4.51999H7.15L9 2.52208H15L16.85 4.51999H20C20.55 4.51999 21.0208 4.71562 21.4125 5.10688C21.8042 5.49814 22 5.96848 22 6.51791V18.5054C22 19.0548 21.8042 19.5252 21.4125 19.9164C21.0208 20.3077 20.55 20.5033 20 20.5033H4ZM4 18.5054H20V6.51791H15.95L14.125 4.51999H9.875L8.05 6.51791H4V18.5054Z" fill="#A6A6A6"/>
</g>
</svg>
