<svg width="88" height="48" viewBox="0 0 88 48" fill="none" xmlns="http://www.w3.org/2000/svg">
<g clip-path="url(#clip0_1408_26907)">
<path d="M34.9384 29.6236L46.0031 8.91167C46.1121 8.72729 46.2756 8.60437 46.4664 8.60437H58.0762C58.3759 8.60437 58.6212 8.88094 58.6212 9.21897V29.9309C58.6212 30.2689 58.3759 30.5455 58.0762 30.5455H50.1728C49.873 30.5455 49.6277 30.2689 49.6277 29.9309V17.8848L43.305 30.2382C43.196 30.4226 43.0325 30.5455 42.8417 30.5455H35.4017C34.9656 30.5455 34.7203 30.0231 34.9384 29.6236Z" fill="black"/>
<path d="M58.8392 9.67995L69.904 30.3919C70.013 30.5762 70.1765 30.6992 70.3673 30.6992H81.977C82.2768 30.6992 82.5221 30.4226 82.5221 30.0846V9.37265C82.5221 9.03463 82.2768 8.75806 81.977 8.75806H74.0737C73.7739 8.75806 73.5286 9.03463 73.5286 9.37265V21.4187L67.2059 9.06536C67.0969 8.88098 66.9334 8.75806 66.7426 8.75806H59.3025C58.8665 8.75806 58.6212 9.28046 58.8392 9.67995Z" fill="black"/>
<path d="M13.2722 9.55699C14.1443 10.1716 14.8529 11.032 15.3434 12.1383C15.834 13.2446 16.0793 14.4738 16.0793 15.8259V16.2254C16.0793 17.5775 15.834 18.8067 15.3434 19.9129C14.8529 21.0192 14.1443 21.8797 13.2722 22.525C12.3729 23.1396 11.3645 23.4776 10.2471 23.4776H6.40446C6.10468 23.4776 5.8594 23.7542 5.8594 24.0922V29.9309C5.8594 30.2689 5.61412 30.5455 5.31434 30.5455H0.54506C0.245277 30.5455 0 30.2689 0 29.9309V9.21897C0 8.88094 0.245277 8.60437 0.54506 8.60437H10.2471C11.3918 8.60437 12.4001 8.91167 13.2722 9.55699ZM5.8594 18.3457H8.28492C8.91174 18.3457 9.37504 18.1613 9.67482 17.7619C9.9746 17.3931 10.1381 16.8707 10.1381 16.1946V15.9488C10.1381 15.2727 9.9746 14.7503 9.67482 14.3816C9.37504 14.0128 8.91174 13.8284 8.28492 13.8284H5.8594V18.3457Z" fill="black"/>
<path d="M16.6243 8.63513H22.7562C23.056 8.63513 23.3013 8.88097 23.3013 9.15754V24.5225C23.3013 24.8298 23.5466 25.0449 23.8463 25.0449H34.3115C34.6113 25.0449 34.8566 25.2907 34.8566 25.5673V30.146C34.8566 30.4533 34.6113 30.6684 34.3115 30.6684H16.6243C16.3245 30.6684 16.0792 30.4226 16.0792 30.146V9.15754C16.0792 8.85024 16.3245 8.63513 16.6243 8.63513Z" fill="black"/>
<path d="M21.0665 23.4161H34.3387C34.6385 23.4161 34.8838 23.6927 34.8838 24.0307V28.2715H21.0665V23.4161Z" fill="black"/>
<path d="M23.7101 9.24973V23.6006C23.7101 23.9386 23.4648 24.2152 23.165 24.2152H19.4041V8.63513H23.165C23.4648 8.63513 23.7101 8.9117 23.7101 9.24973Z" fill="black"/>
<path d="M9.40233 47.8464H7.11308L2.23479 39.2421H2.18028C2.18028 39.703 2.23479 40.1947 2.23479 40.7171C2.23479 41.2395 2.2893 41.7619 2.2893 42.315V47.8464H0.599609V36.8759H2.88886L7.76715 45.4187H7.82166C7.82166 45.0193 7.82166 44.5276 7.76715 44.0052C7.71265 43.4828 7.71265 42.9604 7.71265 42.4687V36.9066H9.40233V47.8771V47.8464Z" fill="black"/>
<path d="M17.0059 47.8464H11.1193V36.8759H17.0059V38.5045H12.9725V41.3009H16.7334V42.9604H12.9725V46.187H17.0059V47.8464Z" fill="black"/>
<path d="M30.6051 36.8758L27.9344 47.8464H25.8904L24.2552 41.5468C24.2007 41.3317 24.1462 41.0858 24.0644 40.7478C23.9827 40.4405 23.9282 40.1025 23.8737 39.8259C23.8191 39.5186 23.7646 39.3035 23.7646 39.1498C23.7646 39.3035 23.7101 39.5186 23.6556 39.8259C23.6011 40.1332 23.5466 40.4405 23.4649 40.7478C23.4103 41.0551 23.3286 41.3316 23.2741 41.5775L21.6934 47.8464H19.6494L16.9786 36.8758H18.8318L20.249 43.114C20.3308 43.3905 20.3853 43.6978 20.4398 44.0051C20.4943 44.3432 20.5488 44.6812 20.6305 45.0192C20.685 45.3573 20.7396 45.6338 20.7668 45.8797C20.7668 45.6031 20.8486 45.3265 20.9031 44.9885C20.9576 44.6505 21.0121 44.3124 21.0938 44.0051C21.1483 43.6978 21.2301 43.4213 21.2846 43.1754L22.8925 36.8451H24.6912L26.3264 43.1754C26.4082 43.4213 26.4627 43.6978 26.5172 44.0051C26.599 44.3432 26.6535 44.6505 26.708 44.9885C26.7625 45.3265 26.817 45.6031 26.8442 45.8489C26.8715 45.6031 26.926 45.3265 26.9805 44.9885C27.035 44.6505 27.0895 44.3124 27.1713 44.0051C27.2258 43.6671 27.3075 43.3598 27.362 43.0833L28.7792 36.8451H30.6324L30.6051 36.8758Z" fill="black"/>
<path d="M39.8712 47.8464H37.5819L32.7036 39.2421H32.6491C32.6491 39.703 32.7036 40.1947 32.7036 40.7171C32.7036 41.2395 32.7581 41.7619 32.7581 42.315V47.8464H31.0957V36.8759H33.385L38.2632 45.4187H38.3178C38.3178 45.0193 38.3178 44.5276 38.2632 44.0052C38.2087 43.4828 38.236 42.9604 38.2087 42.4687V36.9066H39.8984V47.8771L39.8712 47.8464Z" fill="black"/>
<path d="M45.1037 47.8464H40.7705V46.7094L42.0241 46.2177V38.4738L40.7705 37.9514V36.8451H45.1037V37.9514L43.8501 38.4738V46.2177L45.1037 46.7094V47.8464Z" fill="black"/>
<path d="M53.7703 36.8758L50.2001 47.8464H48.2107L44.6405 36.8758H46.5482L48.6194 43.6057C48.674 43.79 48.7557 44.0359 48.8102 44.3124C48.892 44.589 48.9737 44.8963 49.0282 45.2036C49.0827 45.5109 49.1645 45.7875 49.1918 46.0026C49.219 45.7875 49.2735 45.5109 49.3553 45.2036C49.437 44.8963 49.4915 44.589 49.5733 44.3124C49.6551 44.0051 49.7096 43.79 49.7641 43.5749L51.8353 36.8451H53.743L53.7703 36.8758Z" fill="black"/>
<path d="M60.0385 47.8464H54.1519V36.8759H60.0385V38.5045H56.0051V41.3009H59.766V42.9604H56.0051V46.187H60.0385V47.8464Z" fill="black"/>
<path d="M64.2082 36.8759C65.5708 36.8759 66.5792 37.1524 67.2332 37.6748C67.8873 38.1972 68.2144 39.0269 68.2144 40.1025C68.2144 40.6249 68.1326 41.0858 67.9418 41.4546C67.751 41.8234 67.5058 42.1614 67.206 42.4072C66.9062 42.6531 66.5792 42.8682 66.2521 43.0218L69.2227 47.8464H67.1515L64.6715 43.5135H63.1725V47.8464H61.3193V36.8759H64.2627H64.2082ZM64.0991 38.5045H63.118V41.8848H64.1537C64.9167 41.8848 65.489 41.7312 65.8161 41.4546C66.1431 41.178 66.3339 40.7171 66.3339 40.1639C66.3339 39.6108 66.1431 39.1499 65.7888 38.904C65.4345 38.6582 64.8622 38.5353 64.0991 38.5353V38.5045Z" fill="black"/>
<path d="M75.6817 44.8656C75.6817 45.8489 75.3547 46.6172 74.6734 47.1703C74.0193 47.7234 73.0927 48 71.9208 48C70.7489 48 69.8223 47.7849 69.032 47.3854V45.5416C69.468 45.7567 69.9313 45.9411 70.4764 46.0948C70.9942 46.2484 71.5393 46.3406 72.0571 46.3406C72.6839 46.3406 73.1472 46.2177 73.4197 45.9411C73.6923 45.6953 73.8558 45.3573 73.8558 44.927C73.8558 44.4661 73.665 44.1281 73.3107 43.8515C72.9564 43.5749 72.4114 43.2984 71.7028 42.9603C71.2667 42.7759 70.8579 42.5608 70.4764 42.2843C70.0949 42.0077 69.7678 41.6697 69.5225 41.2702C69.2773 40.8707 69.141 40.3483 69.141 39.703C69.141 38.7811 69.4408 38.0436 70.0676 37.5211C70.6944 36.9987 71.512 36.7222 72.5749 36.7222C73.1199 36.7222 73.6377 36.7836 74.101 36.9065C74.5643 37.0295 75.0822 37.2138 75.5455 37.429L74.9459 39.0269C74.5098 38.8425 74.101 38.6889 73.7195 38.566C73.338 38.443 72.9292 38.3816 72.5204 38.3816C72.0298 38.3816 71.6483 38.5045 71.3757 38.7503C71.1305 38.9962 70.9942 39.3035 70.9942 39.6722C70.9942 39.9795 71.076 40.2254 71.2122 40.4405C71.3485 40.6556 71.5938 40.84 71.8935 41.0243C72.1933 41.2087 72.6021 41.3931 73.0654 41.6389C73.6377 41.8848 74.101 42.1614 74.4826 42.4379C74.8641 42.7145 75.1639 43.0525 75.3819 43.452C75.6 43.8515 75.6817 44.3124 75.6817 44.8963V44.8656Z" fill="black"/>
<path d="M82.5495 47.8464H76.6628V36.8759H82.5495V38.5045H78.516V41.3009H82.277V42.9604H78.516V46.187H82.5495V47.8464Z" fill="black"/>
<path d="M85.0494 5C86.4302 5 87.5494 3.88071 87.5494 2.5C87.5494 1.11929 86.4302 0 85.0494 0C83.6687 0 82.5494 1.11929 82.5494 2.5C82.5494 3.88071 83.6687 5 85.0494 5Z" fill="#FF9900"/>
</g>
<defs>
<clipPath id="clip0_1408_26907">
<rect width="88" height="48" fill="white"/>
</clipPath>
</defs>
</svg>
