<svg width="24" height="24" viewBox="0 0 24 24" fill="none" xmlns="http://www.w3.org/2000/svg">
<mask id="mask0_1541_26183" style="mask-type:alpha" maskUnits="userSpaceOnUse" x="0" y="0" width="24" height="24">
<rect width="24" height="24" fill="#D9D9D9"/>
</mask>
<g mask="url(#mask0_1541_26183)">
<path d="M4.17424 21C3.82424 21.0833 3.52007 20.9958 3.26174 20.7375C3.0034 20.4792 2.9159 20.175 2.99924 19.825L3.99924 15.05L8.94924 20L4.17424 21ZM8.94924 20L3.99924 15.05L15.4492 3.6C15.8326 3.21667 16.3076 3.025 16.8742 3.025C17.4409 3.025 17.9159 3.21667 18.2992 3.6L20.3992 5.7C20.7826 6.08333 20.9742 6.55833 20.9742 7.125C20.9742 7.69167 20.7826 8.16667 20.3992 8.55L8.94924 20ZM16.8742 5L6.52424 15.35L8.64924 17.475L18.9992 7.125L16.8742 5Z" fill="#1C1B1F"/>
</g>
</svg>
