<svg width="30" height="21" viewBox="0 0 30 21" fill="none" xmlns="http://www.w3.org/2000/svg">
<path d="M12.9397 19.1216C8.36901 19.036 6.8079 18.959 5.84834 18.758C5.19914 18.6244 4.63498 18.3278 4.22133 17.8975C3.90162 17.5719 3.64737 17.0752 3.45012 16.3859C3.28092 15.8117 3.21502 15.3339 3.12106 14.1669C2.97724 11.5331 2.94296 9.37976 3.12106 6.97373C3.268 5.64504 3.33925 4.06774 4.31528 3.14754C4.77613 2.71687 5.31224 2.43972 5.91424 2.32515C6.85465 2.14356 10.8612 2 15.0089 2C19.1472 2 23.1627 2.14356 24.104 2.32515C24.856 2.46871 25.5613 2.89892 25.9754 3.45367C26.866 4.87836 26.8816 6.64993 26.9719 8.03568C27.0093 8.69594 27.0093 12.4451 26.9719 13.1054C26.8312 15.2954 26.7181 16.0703 26.3984 16.8736C26.2007 17.3808 26.032 17.6485 25.7399 17.9451C25.2818 18.4016 24.6978 18.7052 24.0657 18.8155C20.1103 19.118 16.7517 19.1837 12.9397 19.1216ZM18.9967 10.3217C16.7962 9.1257 14.6892 8.01666 12.5354 6.86866V13.7367C14.8018 12.4836 17.1911 11.3356 19.0061 10.3122L18.9967 10.3217Z" fill="white"/>
</svg>
